/* XPM */
static const char *Icono_xpm[] = {
"32 32 125 2",
"  	c None",
". 	c #FFFFFF",
"+ 	c #E5E5E5",
"@ 	c #888888",
"# 	c #363636",
"$ 	c #202020",
"% 	c #303030",
"& 	c #757575",
"* 	c #C7C7C7",
"= 	c #BEBEBE",
"- 	c #E8E8E8",
"; 	c #F3F3F3",
"> 	c #B0B0B0",
", 	c #626262",
"' 	c #2C2C2C",
") 	c #1E1E1E",
"! 	c #252525",
"~ 	c #616161",
"{ 	c #B3B3B3",
"] 	c #FCFCFC",
"^ 	c #6B6B6B",
"/ 	c #D3D3D3",
"( 	c #000000",
"_ 	c #080808",
": 	c #929292",
"< 	c #CFCFCF",
"[ 	c #B1B1B1",
"} 	c #313131",
"| 	c #B5B5B5",
"1 	c #030303",
"2 	c #585858",
"3 	c #DDDDDD",
"4 	c #B4B4B4",
"5 	c #484848",
"6 	c #DFDFDF",
"7 	c #010101",
"8 	c #F6F6F6",
"9 	c #D4D4D4",
"0 	c #4D4D4D",
"a 	c #1F1F1F",
"b 	c #F4F4F4",
"c 	c #C5C5C5",
"d 	c #727272",
"e 	c #C1C1C1",
"f 	c #606060",
"g 	c #949494",
"h 	c #2B2B2B",
"i 	c #D2D2D2",
"j 	c #1A1A1A",
"k 	c #E7E7E7",
"l 	c #AFAFAF",
"m 	c #B9B9B9",
"n 	c #2A2A2A",
"o 	c #333333",
"p 	c #9E9E9E",
"q 	c #E6E6E6",
"r 	c #161616",
"s 	c #A4A4A4",
"t 	c #464646",
"u 	c #F0F0F0",
"v 	c #D0D0D0",
"w 	c #3C3C3C",
"x 	c #F2F2F2",
"y 	c #B8B8B8",
"z 	c #8D8D8D",
"A 	c #4F4F4F",
"B 	c #DCDCDC",
"C 	c #070707",
"D 	c #040404",
"E 	c #F9F9F9",
"F 	c #D8D8D8",
"G 	c #5B5B5B",
"H 	c #0F0F0F",
"I 	c #C6C6C6",
"J 	c #C9C9C9",
"K 	c #323232",
"L 	c #FAFAFA",
"M 	c #939393",
"N 	c #0A0A0A",
"O 	c #141414",
"P 	c #A5A5A5",
"Q 	c #ACACAC",
"R 	c #747474",
"S 	c #515151",
"T 	c #C4C4C4",
"U 	c #919191",
"V 	c #FEFEFE",
"W 	c #191919",
"X 	c #494949",
"Y 	c #C3C3C3",
"Z 	c #E4E4E4",
"` 	c #212121",
" .	c #EBEBEB",
"..	c #3B3B3B",
"+.	c #525252",
"@.	c #646464",
"#.	c #858585",
"$.	c #565656",
"%.	c #D5D5D5",
"&.	c #D7D7D7",
"*.	c #FDFDFD",
"=.	c #111111",
"-.	c #DEDEDE",
";.	c #171717",
">.	c #8F8F8F",
",.	c #E9E9E9",
"'.	c #F5F5F5",
").	c #D1D1D1",
"!.	c #444444",
"~.	c #454545",
"{.	c #222222",
"].	c #292929",
"^.	c #7E7E7E",
"/.	c #BBBBBB",
"(.	c #353535",
"_.	c #1B1B1B",
":.	c #E3E3E3",
"<.	c #7B7B7B",
"[.	c #EAEAEA",
"}.	c #9D9D9D",
"|.	c #121212",
"1.	c #4E4E4E",
"2.	c #AAAAAA",
"3.	c #636363",
"4.	c #232323",
". . . . . . . . . . . . . . . . . . . . . . . . . . . . . . . . ",
". . . . . . . . . . . . . . . . . . . . . . . . . . . . . . . . ",
". . . . . . . . . . . . . . . . . . . . . . . . . . . . . . . . ",
". . . . . . . . . . . . . . . . . . . . . . . . . . . . . . . . ",
". . . . . . . . . . . . . . . . . . . . . . . . . . . . . . . . ",
". . . . . . . . . . . . . . . . . . . . . . . . . . . . . . . . ",
". . . + @ # $ % & * . = - . . . . . . . . ; > , ' ) ! ~ { ] . ^ ",
". . / ( _ : < [ } ( ( ( - . . . . . . . | ( 1 2 3 . . 4 $ ( 5 ( ",
". 6 ( 7 8 . . . . 9 ( 7 - . . . . . . 0 ( a b . . . . . . c ( ( ",
". d ( | . . . . . . e ( - . . . . . f ( 7 8 . . . . . . . . g ( ",
". h ( i . . . . . . . j k . . . . l ( ( m . . . . . . . . . . ! ",
". n ( o . . . . . . . p q . . . . ) ( r . . . . . . . . . . . s ",
". f ( ( t . . . . . . b u . . . v ( ( w . . . . . . . . . . . x ",
". < ( ( ( j y . . . . . . . . . 5 ( ( z . . . . . . . . . . . . ",
". . z ( ( ( ( A B . . . . . . . C ( ( e . . . . . . . . . . . . ",
". . . y D ( ( ( ( ^ . . . . . E _ ( ( F . . . . . . . . . . . . ",
". . . . b G ( ( ( ( H I . . . 8 C ( ( F . . . . . . . . . . . . ",
". . . . . . J K ( ( ( ( * . . L _ ( ( i . . . . . . . . . . . . ",
". . . . . . . . M N ( ( ( E . . O ( ( P . . . . . . . . . . . . ",
". Q . . . . . . . x C ( ( y . . R ( ( S . . . . . . . . . . . . ",
". 2 . . . . . . . . T ( ( U . . V 7 ( W . . . . . . . . . . . . ",
". X Y . . . . . . . x ( ( s . . . X ( ( y . . . . . . . . . V Z ",
". S ` . . . . . . .  .( ( F . . . . C ( ( k . . . . . . . . L ..",
". +.( @.. . . . . . #.( $.. . . . . %.( ( ( &.. . . . . . *.=.-.",
". S ( ( ;.>.,.'.).!.( ~.V . . . . . . Z {.( ( ].^./.= p (._.:.. ",
". <.. [.}.0 a |._.1.2.. . . . . . . . . . | 3.(.j r 4.+.2.. . . ",
". . . . . . . . . . . . . . . . . . . . . . . . . . . . . . . . ",
". . . . . . . . . . . . . . . . . . . . . . . . . . . . . . . . ",
". . . . . . . . . . . . . . . . . . . . . . . . . . . . . . . . ",
". . . . . . . . . . . . . . . . . . . . . . . . . . . . . . . . ",
". . . . . . . . . . . . . . . . . . . . . . . . . . . . . . . . ",
". . . . . . . . . . . . . . . . . . . . . . . . . . . . . . . . "};
